<?xml version="1.0" encoding="UTF-8"?>
<svg width="676.6" height="504.35" enable-background="new 0 0 1080 1080" version="1.1" viewBox="0 0 676.6 504.35" xml:space="preserve" xmlns="http://www.w3.org/2000/svg" xmlns:xlink="http://www.w3.org/1999/xlink">
<g transform="translate(-217.54 -258.28)" opacity=".05">
	<path d="m816.54 598.62c-48.692-35.461-61.575-55.593-61.575-55.593 186.72-223.28-190.58-296.18-264.09-142.66-30.64 63.992-93.035 62.629-199.14 82.732-98 18.567-94.943 119.4-14.163 198.31h584.13c13.707-47.564-22.936-66.609-45.158-82.792z" fill="#2a94f4"/>
</g>
<g transform="translate(-217.54 -258.28)">
	<defs>
		<path id="SVGID_1_" d="m816.54 598.48c-48.692-35.461-61.575-55.593-61.575-55.593 186.72-223.28-190.58-296.18-264.09-142.66-30.64 63.992-93.035 62.629-199.14 82.732-98 18.567-94.943 119.4-14.163 198.31h584.13c13.707-47.564-22.936-66.609-45.158-82.792z"/>
	</defs>
	<clipPath id="SVGID_2_">
		<use width="100%" height="100%" overflow="visible" xlink:href="#SVGID_1_"/>
	</clipPath>
</g>
<path d="m233.28 92.861s-5.338-7.013-8.609-10.227c-5.892-5.788-12.649-16.018-34.259-8.478-1.68 0.586-3.307 1.363-4.924 2.146-1.905 0.922-7.806 0.946-13.85-4.535-9.603-8.71-13.359-15.282-26.517-15.486-15.309-0.238-17.717 21.561-29.616 27.14-7.572 3.551-27.55 7.08-31.682 8.653z" fill="#2a94f4" opacity=".1"/>
<path d="m78.659 385.64c1.009 0.062 26.483-2.997 27.641-26.686 1.158-23.688-15.076-29.555-10.803-55.926 4.273-26.372 15.48-33.949-9.638-53.197 0 0-11.2-7.75-11.722-18.622-0.624-13.013-23.089-28.117-38.157-19.436s-11.527 22.094 1.375 43.797 0.469 25.492-2.011 32.508c-2.479 7.016-8.23 14.378 4.939 31.148s-2.52 37.245 8.69 53.303c1e-3 1e-3 9.838 11.887 29.686 13.111z" fill="#2a94f4"/>
<g transform="translate(-217.54 -258.28)"><g fill="#0b4870">
	<path d="m292.22 680.23c-0.546-0.139-0.898-0.681-0.791-1.242 13.684-72.305-14.21-170.91-14.493-171.9-0.164-0.571 0.166-1.167 0.737-1.33 0.57-0.166 1.167 0.165 1.33 0.737 0.285 0.992 28.317 100.09 14.539 172.89-0.11 0.584-0.673 0.967-1.257 0.857-0.021-5e-3 -0.043-0.01-0.065-0.015z"/>
	<path d="m286.51 545.8c-0.059-0.015-0.118-0.035-0.175-0.061-0.542-0.243-0.785-0.879-0.543-1.421 0.057-0.128 5.743-12.906 8.076-23.817 0.125-0.581 0.696-0.951 1.277-0.827 0.586 0.122 0.951 0.696 0.827 1.277-2.38 11.136-8.158 24.115-8.216 24.245-0.217 0.484-0.748 0.73-1.246 0.604z"/>
	<path d="m290.19 567.67c-0.149-0.038-0.293-0.109-0.42-0.214-5.407-4.472-19.009-12.891-19.146-12.976-0.505-0.312-0.662-0.975-0.349-1.48 0.311-0.505 0.971-0.668 1.48-0.349 0.563 0.348 13.864 8.582 19.386 13.148 0.458 0.378 0.522 1.056 0.143 1.514-0.273 0.332-0.703 0.456-1.094 0.357z"/>
	<path d="m293.24 588.97c-0.075-0.019-0.149-0.047-0.222-0.083-0.53-0.268-0.742-0.916-0.474-1.446l7.581-14.975c0.268-0.529 0.913-0.745 1.446-0.473 0.53 0.269 0.742 0.916 0.473 1.446l-7.581 14.975c-0.231 0.457-0.746 0.677-1.223 0.556z"/>


	</g><path d="m528.44 405.74-0.941-2.685-0.941 2.685c-0.793 2.264-2.678 4.175-5.23 5.303 2.552 1.129 4.436 3.04 5.23 5.303l0.941 2.686 0.941-2.686c0.793-2.264 2.678-4.174 5.23-5.303-2.552-1.128-4.436-3.039-5.23-5.303z" fill="#fff"/>
	<path d="m686.13 375.36-1.579-4.503-1.578 4.503c-1.33 3.796-4.49 7-8.769 8.893 4.279 1.893 7.439 5.097 8.769 8.893l1.578 4.503 1.579-4.503c1.33-3.796 4.49-7 8.769-8.893-4.279-1.894-7.439-5.098-8.769-8.893z" fill="#fff"/>
</g>
<g transform="translate(-217.54 -258.28)" opacity=".5">
	<path d="m765.8 657.87h-396.02v-213.81c0-1.925 1.56-3.485 3.485-3.485h389.05c1.925 0 3.485 1.56 3.485 3.485z" fill="#2a94f4"/>
	<path d="m784.31 680.84h-433.05c-1.982 0-3.588-1.607-3.588-3.588v-19.386h440.23v19.386c-1e-3 1.981-1.607 3.588-3.589 3.588z" fill="#2a94f4"/>
	<path d="m516.34 657.87 4.635 4.458c1.839 1.769 4.291 2.757 6.843 2.757h80.62c2.842 0 5.546-1.225 7.42-3.362l3.38-3.853z" fill="#fff"/>
	<rect x="384.51" y="454.94" width="366.55" height="190.48" fill="#f7f7f7"/>
</g>
<line x1="29.334" x2="676.41" y1="422.56" y2="422.56" fill="none" stroke="#102236" stroke-linecap="round" stroke-linejoin="round" stroke-miterlimit="10" stroke-width=".3749"/>



<g transform="translate(-217.54 -258.28)">
	<path d="m565.04 535.71h-143.68c-0.569 0-1.031-0.462-1.031-1.031v-45.648c0-0.569 0.461-1.031 1.031-1.031h143.67c0.569 0 1.031 0.462 1.031 1.031v45.648c1e-3 0.569-0.461 1.031-1.03 1.031z" fill="#b8b8b8" opacity=".16"/>
	<path d="m576.28 522.38h-137.81c-0.558 0-1.01-0.452-1.01-1.01v-45.691c0-0.558 0.452-1.01 1.01-1.01h137.81c0.558 0 1.01 0.452 1.01 1.01v45.691c-1e-3 0.558-0.453 1.01-1.01 1.01z" fill="#ffbe55"/>
	<g fill="#fff">
		<path d="m554.53 492.39h-98.686c-0.856 0-1.549-0.692-1.549-1.549s0.692-1.549 1.549-1.549h98.686c0.857 0 1.549 0.692 1.549 1.549 1e-3 0.856-0.692 1.549-1.549 1.549z"/>
		<path d="m501.44 507.76h-45.599c-0.856 0-1.549-0.692-1.549-1.549 0-0.856 0.692-1.549 1.549-1.549h45.599c0.857 0 1.549 0.692 1.549 1.549s-0.692 1.549-1.549 1.549z"/>
	</g>


	<path d="m503.03 617.79h-133.25v-50.182c0-0.566 0.459-1.025 1.025-1.025h132.23c0.566 0 1.025 0.459 1.025 1.025v49.156c0 0.567-0.459 1.026-1.025 1.026z" fill="#b8b8b8" opacity=".16"/>
	
		<path d="m526.28 603.48h-188c-0.674 0-1.221-0.547-1.221-1.221v-48.765c0-0.674 0.547-1.221 1.221-1.221h188c0.674 0 1.221 0.547 1.221 1.221v48.765c0 0.675-0.547 1.221-1.221 1.221z" fill="#ffbe55"/>
		<g fill="#fff">
			<path d="m504.92 571.3h-105.92c-0.919 0-1.662-0.743-1.662-1.662s0.743-1.662 1.662-1.662h105.92c0.919 0 1.662 0.743 1.662 1.662s-0.743 1.662-1.662 1.662z"/>
			<path d="m447.94 587.79h-48.94c-0.919 0-1.662-0.743-1.662-1.662s0.743-1.662 1.662-1.662h48.94c0.919 0 1.662 0.743 1.662 1.662s-0.742 1.662-1.662 1.662z"/>
		</g>
		<path d="m382.9 592.19h-30.643c-0.6 0-1.087-0.487-1.087-1.087v-27.63c0-0.6 0.487-1.087 1.087-1.087h30.643c0.6 0 1.087 0.487 1.087 1.087v27.63c0 0.601-0.487 1.087-1.087 1.087z" fill="#fff"/>
	


	<path d="m720.02 632.55h-139.29c-0.743 0-1.345-0.602-1.345-1.345v-80.64c0-0.743 0.602-1.345 1.345-1.345h139.29c0.743 0 1.345 0.602 1.345 1.345v80.64c0 0.743-0.602 1.345-1.345 1.345z" fill="#ebedfd"/>
	<g fill="#fff">
		
			<rect x="688.47" y="567.86" width=".988" height="49.446"/>
			<rect x="673.54" y="567.86" width=".988" height="49.446"/>
			<rect x="658.62" y="567.86" width=".988" height="49.446"/>
			<rect x="643.7" y="567.86" width=".988" height="49.446"/>
			<rect x="628.77" y="567.86" width=".988" height="49.446"/>
			<rect x="613.85" y="567.86" width=".988" height="49.446"/>
		
		<rect x="602.04" y="623" width="98.017" height=".988"/>
	</g>
	<path d="m636.8 615.67c-0.396 0-0.801-0.049-1.209-0.149-5.686-1.398-8.619-6.622-10.979-10.818-1.645-2.928-3.198-5.695-4.897-5.695-5.537 0-9.021 6.541-11.823 11.797-0.54 1.016-1.048 1.966-1.533 2.799-0.517 0.895-1.659 1.211-2.566 0.677-0.896-0.519-1.2-1.671-0.677-2.566 0.462-0.795 0.947-1.705 1.464-2.675 3.1-5.818 7.345-13.786 15.135-13.786 3.898 0 5.973 3.697 8.172 7.609 2.21 3.935 4.495 8.003 8.6 9.013 0.344 0.086 0.58 0.049 0.858-0.135 2.426-1.599 3.835-10.089 4.966-16.909 1.702-10.264 3.054-18.399 8.086-18.399 0.066 0 0.135 0 0.204 6e-3 5.06 0.215 6.576 6.811 8.178 13.795 1.337 5.832 2.853 12.443 6.128 12.922 3.872 0.571 5.376-0.746 7.288-2.402 1.774-1.536 3.998-3.439 8.011-3.077 3.585 0.33 5.614 2.692 7.402 4.776 2.448 2.847 4.736 5.534 11.298 4.874 1.039-0.063 1.952 0.649 2.058 1.679 0.103 1.03-0.646 1.952-1.679 2.058-8.499 0.864-11.837-3.034-14.524-6.162-1.808-2.104-2.925-3.304-4.9-3.487-2.437-0.227-3.594 0.784-5.207 2.179-2.104 1.826-4.716 4.087-10.293 3.278-5.815-0.85-7.557-8.447-9.242-15.795-1.105-4.808-2.477-10.792-4.679-10.887h-0.023c-1.869 0-3.579 10.298-4.4 15.258-1.447 8.706-2.81 16.926-6.605 19.429-0.801 0.526-1.687 0.793-2.612 0.793z" fill="#ffbe55"/>


	<g fill="#ffbe55">
		<path d="m507.39 721.22-96.768-15.249c-0.822-0.129-1.384-0.901-1.254-1.724 0.13-0.822 0.901-1.384 1.724-1.254l96.768 15.249c0.822 0.129 1.384 0.901 1.254 1.723-0.13 0.823-0.902 1.384-1.724 1.255z"/>
		<path d="m474.9 727.74h-87.074c-0.74 0-1.34-0.6-1.34-1.34s0.6-1.34 1.34-1.34h87.074c0.74 0 1.34 0.6 1.34 1.34s-0.6 1.34-1.34 1.34z"/>
	</g>
</g>
<path d="m389.16 16.065s2.678-3.08 4.319-4.491c2.956-2.542 6.345-7.035 17.185-3.723 0.843 0.257 1.659 0.599 2.47 0.943 0.956 0.405 3.916 0.415 6.948-1.992 4.817-3.825 6.701-6.711 13.301-6.801 7.68-0.105 8.888 9.469 14.856 11.919 3.799 1.559 13.82 3.109 15.893 3.8z" fill="#2a94f4" opacity=".1"/>
<g transform="translate(-217.54 -258.28)">
	<path d="m808.64 703.14s3.819 11.265 4.604 13.131c0.648 1.54 2.038 2.573 3.356 3.601 0.422 0.329 0.841 1.072 1.197 1.698 0.286 0.503 0.268 1.097 0.039 1.629-3.999 9.286-14.825 12.511-15.035 11.786-0.378-1.308 1.339-3.804 3.636-4.974 2.312-1.177 3.741-3.586 3.982-6.169 0.192-2.055-0.15-4.125-0.991-6.009l-3.873-8.445z" fill="#fa968c"/>
	<path d="m792.62 716.1-3.299 11.626c-1.009 3.555-0.707 7.36 0.845 10.713 0 1e-3 1e-3 2e-3 1e-3 2e-3 0.872 1.875-0.117 4.083-2.1 4.67-6.409 1.896-18.831 5.488-19.349 4.997-2.64-2.501 4.896-5.965 10.532-9.735 3.801-2.542 5.902-15.249 6.767-25.036l5.724 1.781c0.443 0.151 0.777 0.524 0.879 0.982z" fill="#fa968c"/><g fill="#0b4870">
	<path d="m780.3 741.79c-2.65 0.713-5.518 0.833-8.15 1.011-0.302 0.02-0.595 0.121-0.844 0.293-2.615 1.805-3.988 3.69-2.588 5.016 0.563 0.533 15.161-3.748 20.856-5.444 1.191-0.355 1.776-1.68 1.252-2.807l-0.954-2.052c-3.021 1.697-6.214 3.08-9.572 3.983z"/>
	<path d="m794.9 584.78c6.87 1.327 12.327 9.632 10.619 18.475-0.981 5.081-6.756 23.146-12.796 37.344-2.318 5.449-1.844 11.798 1.672 16.563 0.573 0.776 1.063 1.574 1.443 2.377 1.963 4.143 9.061 28.372 13.123 44.503-0.508 2.054-1.891 4.617-3.495 5.447-7.942-13.945-20.709-39.306-22.796-43.713-1.159-2.448-2.418-5.274-3.305-7.911-5.212-7.752-1.831-49.271-0.247-57.475 1.709-8.842 8.912-16.936 15.782-15.61z"/>
	
		<ellipse transform="matrix(.0551 -.9985 .9985 .0551 217.91 1299.9)" cx="795.77" cy="534.84" rx="13.768" ry="10.673"/>
	<path d="m798.24 536.4c0.589-7.6 7.102-13.656 14.725-13.671 6.762-0.014 12.355 4.438 14.208 10.456 0.649 2.109 2.601 3.566 4.806 3.655 0.916 0.037 1.852 0.173 2.8 0.422 5.506 1.448 9.57 6.391 9.845 12.078 0.248 5.129-2.392 9.573-6.371 11.973-1.697 1.023-2.73 2.818-3.109 4.763-1.755 9-10.404 15.205-19.794 13.65-8.031-1.33-14.13-8.336-14.371-16.472-0.148-4.991 1.809-9.453 4.994-12.671-4.976-2.699-8.202-8.131-7.733-14.183z"/>
	<path d="m796.77 516.59s-6.204 3.443-5.755 8.567c0 0-3.077-2.445-3.371-10.296-0.204-5.441 9.126 1.729 9.126 1.729z"/>
	</g><path d="m791.25 547.35c-0.142 1.782-0.533 3.755-1.591 5.71-0.556 0.971-1.279 1.899-2.157 2.677-0.889 0.763-1.886 1.348-2.891 1.752-2.02 0.782-3.938 0.921-5.666 0.856-1.741-0.067-3.349-0.342-4.883-0.707-3.064-0.746-5.861-1.838-8.565-3.036-2.702-1.202-5.297-2.533-7.819-3.968-5.042-2.863-9.848-6.01-14.52-9.323-4.673-3.316-9.197-6.798-13.479-10.652-0.47-0.423-0.508-1.147-0.085-1.617 0.394-0.438 1.049-0.501 1.517-0.166l0.015 0.011c2.261 1.633 4.624 3.17 7.006 4.661 2.38 1.496 4.779 2.962 7.211 4.365 4.861 2.807 9.824 5.428 14.881 7.705 2.533 1.123 5.071 2.2 7.629 3.104 2.551 0.906 5.136 1.658 7.622 2.07 1.238 0.211 2.45 0.319 3.543 0.283 1.098-0.023 2.049-0.235 2.655-0.541 0.604-0.32 0.859-0.616 1.132-1.155 0.247-0.568 0.439-1.43 0.457-2.47 0.038-2.21 1.861-3.971 4.071-3.933s3.971 1.861 3.933 4.071c-1e-3 0.08-5e-3 0.159-0.011 0.237z" fill="#fab9af"/>
	<path d="m786.9 573.54c-2.001-7.362-5.982-22.938-5.293-27.919 0.441-3.191 3.255-5.498 6.472-5.321l20.869 1.151c3.46 0.191 6.14 3.091 6.05 6.555-0.157 6.054-3.701 19.657-5.664 26.771z" fill="#ffbe55"/>
	<path d="m786 715.88c-0.317-0.218-0.479-0.601-0.447-0.984 1.288-15.325 3.3-34.839 3.845-38.57 0.062-0.427 0.137-0.847 0.222-1.259-2.288-18.326-0.634-57.362-0.584-64.211 0.066-9.006 6.035-18.843 13.031-18.791 6.997 0.051 14.173 7.692 15.96 16.045 1.179 5.512-6.132 34.097-13.482 54.701-1.547 4.337-2.008 8.963-1.602 13.55 0.28 3.172 0.237 6.423-0.123 8.889-0.536 3.672-5.498 18.47-10.084 31.122-0.133 0.366-0.446 0.644-0.831 0.707-2.03 0.331-4.113 0.033-5.905-1.199z" fill="#0b4870"/>
	<path d="m811.22 584.07c-0.913-3.091-1.058-6.352-0.429-9.512 1.461-7.338 4.069-21.17 4.226-27.094 0.084-3.167-2.368-5.812-5.532-5.987l-3.094-0.171c-1.329 2.669-3.943 4.643-7.826 4.428-3.877-0.214-6.258-2.463-7.288-5.262l-2.906-0.16c2.785 6.935 1.158 15.791-4.562 20.696 0.813 3.624 1.464 7.262 1.938 10.208 0.643 3.99 0.036 8.077-1.721 11.716-3.021 6.254-5.7 16.403-5.295 20.506 21.61 7.433 37.399-2.742 37.399-2.742z" fill="#ffbe55"/>
	
		<polygon points="802.46 531.14 796.3 531.56 795.36 542.14 804.89 541.67" fill="#fab9af"/>
	
	<path d="m796.3 531.56 6.165-0.42 0.757 3.286c-1.456 1.47-3.402 4.711-5.63 4.588-0.707-0.039-1.34-0.274-1.899-0.673z" fill="#fa968c"/>
	<path d="m795.81 536.56c2.079 0.114 4.385-0.802 7.632-3.337 1.864-1.456 3.331-4.092 3.432-5.923l0.558-10.124-15.587-0.86s-1.466 5.311-0.625 10.708c0.633 4.049 2.955 9.447 4.59 9.536z" fill="#fab9af"/>
	<path d="m804.34 525.24c-0.109 1.975 0.748 3.629 1.915 3.693 1.166 0.064 2.595-2.454 2.704-4.429s-1.143-2.66-2.31-2.724c-1.166-0.065-2.2 1.484-2.309 3.46z" fill="#fab9af"/>
	<path d="m809.29 518.51c0.174-3.161-2.248-5.865-5.409-6.038l-5.261-0.288c-1.505-0.082-2.942-0.557-4.182-1.353-1.798-1.156-4.164-0.934-5.525 0.714-1.471 1.781-2.2 4.235 1.144 6.729 1.662 1.24 4.255 0.111 5.905 0.753 0.104 1e-3 0.197-0.01 0.305-4e-3l4.637 0.256c1.611 0.089 2.772 1.474 2.729 3.087-0.027 1.02 0.763 1.883 1.789 1.94l0.206 0.011 0.874-2.338 2.396 3.633z" fill="#0b4870"/>
	<path d="m730.59 524.28s2.498 4.898 1.255 6.156c-1.242 1.258-2.307 1.875-4.206 0.135s-3.674-5.031-4.344-7.218-0.245-6.326 0.093-6.738c1.231-1.504 2.028 2.585 2.511 4.546s1.223 4.128 2.101 3.629-0.329-4.185 0.488-5.09c0.816-0.904 2.102 4.58 2.102 4.58z" fill="#fab9af"/>
	<path d="m775.78 587.39s5.467-0.586 6.199 1.024c0.732 1.609 0.928 2.824-1.374 3.977-2.303 1.153-6.011 1.638-8.293 1.483-2.282-0.154-5.997-2.028-6.262-2.491-0.966-1.686 3.138-0.972 5.142-0.724 2.004 0.249 4.292 0.331 4.139-0.668-0.153-0.998-4.027-1.186-4.581-2.272-0.553-1.085 5.03-0.329 5.03-0.329z" fill="#fab9af"/>
	<path d="m793.02 516.2c0.395 2.342-0.446 3.564 6.936 7.592s9.866 2.618 12.02 6.635c0 0-0.68-6.495-4.745-8.935-4.065-2.441-11.247-4.285-13.294-9.53-1e-3 -1e-3 -1.187 2.638-0.917 4.238z" fill="#0b4870"/>
	<path d="m814.19 546.14c1.067 1.588 1.917 3.04 2.783 4.601 0.848 1.542 1.663 3.102 2.405 4.705 1.477 3.207 2.768 6.531 3.719 10.034 0.92 3.506 1.509 7.213 1.266 11.113-0.137 1.945-0.508 3.939-1.223 5.868-0.695 1.933-1.815 3.764-3.213 5.291-1.394 1.536-3.049 2.76-4.773 3.682-1.728 0.926-3.522 1.569-5.31 2.044-1.792 0.471-3.581 0.733-5.357 0.932-1.775 0.142-3.541 0.223-5.285 0.176-6.985-0.115-13.718-1.344-20.299-2.95-0.615-0.15-0.992-0.77-0.842-1.385 0.138-0.565 0.673-0.929 1.236-0.868l0.013 2e-3c6.628 0.713 13.292 1.198 19.744 0.682 3.214-0.273 6.37-0.8 9.234-1.778 2.845-0.995 5.345-2.512 6.896-4.568 1.574-2.031 2.261-4.601 2.289-7.419 0.015-2.823-0.629-5.807-1.561-8.74-0.92-2.946-2.173-5.861-3.614-8.698-0.715-1.421-1.463-2.834-2.26-4.217-0.789-1.359-1.66-2.792-2.455-3.997l-0.052-0.078c-1.217-1.844-0.709-4.324 1.135-5.541 1.835-1.209 4.301-0.711 5.524 1.109z" fill="#fab9af"/>
	<path d="m794.45 516.71s-0.717 7.775-7.731 11.141c0 0 3.325-5.723 3.333-9.584s4.994-4.193 4.398-1.557z" fill="#0b4870"/>
	<path d="m820.2 726.04c0.479-0.493 0.53-1.258 0.117-1.807-0.338-0.449-1.234-1.678-1.908-2.601-0.293-0.401-0.889-0.345-1.127 0.091-2.699 4.928-6.958 8.652-12.267 9.087-1.773 1.061-3.006 3.61-2.707 4.646 0.07 0.243 2.407 0.405 4.943-0.866 11.259-5.647 12.949-8.55 12.949-8.55z" fill="#0b4870"/>


	<circle cx="724" cy="492.39" r="34.551" fill="#ffbe55"/>
	
		
			
				
					<path d="m724 521.62c-16.12 0-29.234-13.114-29.234-29.234 0-16.119 13.114-29.234 29.234-29.234 16.119 0 29.234 13.114 29.234 29.234s-13.115 29.234-29.234 29.234z" fill="#ffbe55"/>
				
			
		
	
	<g fill="#fff">
		<polygon points="724 495.82 734.63 490.83 724 473.74 713.37 490.83"/>
		<polygon points="724 500.91 713.37 493.95 724 511.05 734.63 493.95"/>
	</g>
</g><g transform="translate(-557.03 -304.25)"><circle cx="724" cy="492.39" r="34.551" fill="#ffbe55"/><path d="m724 521.62c-16.12 0-29.234-13.114-29.234-29.234 0-16.119 13.114-29.234 29.234-29.234 16.119 0 29.234 13.114 29.234 29.234s-13.115 29.234-29.234 29.234z" fill="#ffbe55"/><g fill="#fff"><polygon points="713.37 490.83 724 495.82 734.63 490.83 724 473.74"/><polygon points="734.63 493.95 724 500.91 713.37 493.95 724 511.05"/></g></g><g transform="translate(-330.31 -370.25)"><circle cx="724" cy="492.39" r="34.551" fill="#ffbe55"/><path d="m724 521.62c-16.12 0-29.234-13.114-29.234-29.234 0-16.119 13.114-29.234 29.234-29.234 16.119 0 29.234 13.114 29.234 29.234s-13.115 29.234-29.234 29.234z" fill="#ffbe55"/><g fill="#fff"><polygon points="713.37 490.83 724 495.82 734.63 490.83 724 473.74"/><polygon points="734.63 493.95 724 500.91 713.37 493.95 724 511.05"/></g></g><g transform="translate(-351.68 -22.596)"><circle cx="724" cy="492.39" r="34.551" fill="#ffbe55"/><path d="m724 521.62c-16.12 0-29.234-13.114-29.234-29.234 0-16.119 13.114-29.234 29.234-29.234 16.119 0 29.234 13.114 29.234 29.234s-13.115 29.234-29.234 29.234z" fill="#ffbe55"/><g fill="#fff"><polygon points="713.37 490.83 724 495.82 734.63 490.83 724 473.74"/><polygon points="734.63 493.95 724 500.91 713.37 493.95 724 511.05"/></g></g>
</svg>
