<svg width="50" height="50" viewBox="0 0 50 50" fill="none" xmlns="http://www.w3.org/2000/svg">
<path d="M38.0952 13.0952H40.4762M10.7143 1.19043H39.2857C44.5456 1.19043 48.8095 5.45438 48.8095 10.7142V39.2857C48.8095 44.5455 44.5456 48.8095 39.2857 48.8095H10.7143C5.45443 48.8095 1.19048 44.5455 1.19048 39.2857V10.7142C1.19048 5.45438 5.45443 1.19043 10.7143 1.19043ZM25 34.5238C19.7401 34.5238 15.4762 30.2598 15.4762 25C15.4762 19.7401 19.7401 15.4761 25 15.4761C30.2599 15.4761 34.5238 19.7401 34.5238 25C34.5238 30.2598 30.2599 34.5238 25 34.5238Z" stroke="white"/>
</svg>
