<svg width="50" height="50" viewBox="0 0 50 50" fill="none" xmlns="http://www.w3.org/2000/svg">
<path d="M13.0952 45.238L25 21.6666M14.213 31.6666C11.9048 29.7619 10.7143 27.5611 10.7143 25V22.619C10.7143 16.1757 16.1757 10.7142 22.619 10.7142H27.381C33.8243 10.7142 39.2857 16.1757 39.2857 22.619V25C39.2857 30.5228 34.0943 34.5238 28.5714 34.5238C25.1104 34.5238 22.1305 32.0809 21.4517 28.687L21.4286 28.5714M25 48.8095C11.8504 48.8095 1.19048 38.1496 1.19048 25C1.19048 11.8503 11.8504 1.19043 25 1.19043C38.1496 1.19043 48.8095 11.8503 48.8095 25C48.8095 38.1496 38.1496 48.8095 25 48.8095Z" stroke="white"/>
</svg>
