<svg width="50" height="50" viewBox="0 0 50 50" fill="none" xmlns="http://www.w3.org/2000/svg">
<path d="M48.736 4.76196L49.2349 4.72889C49.2216 4.52831 49.0895 4.35521 48.8996 4.28946C48.7096 4.22372 48.4988 4.27812 48.3643 4.42756L48.736 4.76196ZM45.8399 14.8263C45.8399 14.5501 45.6161 14.3263 45.3399 14.3263C45.0638 14.3263 44.8399 14.5501 44.8399 14.8263H45.8399ZM25 17.8572V18.3572H25.5V17.8572H25ZM4.58659 4.76196L5.05484 4.58664C4.98507 4.4003 4.81146 4.27307 4.61277 4.26265C4.41407 4.25223 4.22811 4.36061 4.13924 4.53863L4.58659 4.76196ZM17.8571 35.7143L18.211 36.0676C18.3333 35.9451 18.3836 35.7679 18.3437 35.5994C18.3039 35.4308 18.1797 35.2949 18.0155 35.2401L17.8571 35.7143ZM1.19048 42.1769V41.6769C0.970208 41.6769 0.775886 41.8211 0.711981 42.0319C0.648076 42.2427 0.729642 42.4704 0.912829 42.5928L1.19048 42.1769ZM42.7417 8.07278L42.3708 8.40812L42.551 8.60737L42.8166 8.56714L42.7417 8.07278ZM48.2371 4.79504C48.4165 7.50096 48.2647 9.29959 47.7549 10.7367C47.2488 12.1634 46.3719 13.2847 44.994 14.605L45.6859 15.3271C47.1143 13.9583 48.1165 12.7086 48.6974 11.071C49.2746 9.44391 49.4177 7.48506 49.2349 4.72889L48.2371 4.79504ZM45.8399 17.3045V14.966H44.8399V17.3045H45.8399ZM45.8399 14.966V14.8263H44.8399V14.966H45.8399ZM24.5 15.4762V17.8572H25.5V15.4762H24.5ZM35.2912 4.26196C29.2856 4.26196 24.5 9.5135 24.5 15.4762H25.5C25.5 10.0135 29.8888 5.26196 35.2912 5.26196V4.26196ZM44.8399 17.3045C44.8399 32.6534 31.9719 45.9286 16.6667 45.9286V46.9286C32.5437 46.9286 45.8399 33.1859 45.8399 17.3045H44.8399ZM4.11833 4.93729C5.86814 9.61065 12.5105 18.3572 25 18.3572V17.3572C13.0375 17.3572 6.70115 8.98357 5.05484 4.58664L4.11833 4.93729ZM4.13924 4.53863C0.696024 11.4357 0.156339 18.053 2.4825 23.6197C4.80867 29.1864 9.95989 33.605 17.6988 36.1886L18.0155 35.2401C10.4719 32.7217 5.59172 28.4667 3.40518 23.2341C1.21864 18.0015 1.68493 11.6937 5.03394 4.98529L4.13924 4.53863ZM17.5033 35.3611C15.3105 37.5573 9.17951 41.6769 1.19048 41.6769V42.6769C9.50277 42.6769 15.8757 38.4065 18.211 36.0676L17.5033 35.3611ZM43.1126 7.73744C41.1832 5.60367 38.3934 4.26196 35.2912 4.26196V5.26196C38.0987 5.26196 40.6229 6.47498 42.3708 8.40812L43.1126 7.73744ZM42.8166 8.56714C45.1178 8.21861 47.393 7.00244 49.1078 5.09637L48.3643 4.42756C46.7984 6.16823 44.7303 7.26591 42.6668 7.57842L42.8166 8.56714ZM0.912829 42.5928C6.11525 46.0664 11.1169 46.9286 16.6667 46.9286V45.9286C11.2409 45.9286 6.45404 45.0902 1.46812 41.7611L0.912829 42.5928Z" fill="white"/>
</svg>
