<svg width="50" height="50" viewBox="0 0 50 50" fill="none" xmlns="http://www.w3.org/2000/svg">
<path d="M5.24025 42.4766L5.1422 42.9669H5.1422L5.24025 42.4766ZM44.7597 42.4766L44.8578 42.9669L44.7597 42.4766ZM45.0311 7.8638L45.1358 7.3749L45.0311 7.8638ZM4.96894 7.8638L5.07371 8.3527L4.96894 7.8638ZM20.2381 17.8571L20.4953 17.4284C20.3409 17.3357 20.1485 17.3333 19.9917 17.422C19.835 17.5108 19.7381 17.677 19.7381 17.8571H20.2381ZM20.2381 32.1429H19.7381C19.7381 32.323 19.835 32.4892 19.9917 32.578C20.1485 32.6667 20.3409 32.6643 20.4953 32.5716L20.2381 32.1429ZM32.1429 25L32.4001 25.4287C32.5507 25.3384 32.6429 25.1756 32.6429 25C32.6429 24.8244 32.5507 24.6616 32.4001 24.5713L32.1429 25ZM0.690475 12.5377V37.5367H1.69048V12.5377H0.690475ZM49.3095 37.5367V12.5377H48.3095V37.5367H49.3095ZM5.1422 42.9669C18.2509 45.5887 31.7491 45.5887 44.8578 42.9669L44.6617 41.9863C31.6824 44.5822 18.3176 44.5822 5.33831 41.9863L5.1422 42.9669ZM45.1358 7.3749C31.8626 4.53063 18.1374 4.53063 4.86418 7.3749L5.07371 8.3527C18.2088 5.53803 31.7912 5.53803 44.9263 8.3527L45.1358 7.3749ZM49.3095 12.5377C49.3095 10.048 47.5703 7.89657 45.1358 7.3749L44.9263 8.3527C46.8997 8.77557 48.3095 10.5195 48.3095 12.5377H49.3095ZM48.3095 37.5367C48.3095 39.6997 46.7827 41.5621 44.6617 41.9863L44.8578 42.9669C47.4463 42.4492 49.3095 40.1764 49.3095 37.5367H48.3095ZM0.690475 37.5367C0.690475 40.1764 2.55371 42.4492 5.1422 42.9669L5.33831 41.9863C3.21725 41.5621 1.69048 39.6998 1.69048 37.5367H0.690475ZM1.69048 12.5377C1.69048 10.5195 3.10031 8.77557 5.07371 8.3527L4.86418 7.3749C2.42971 7.89657 0.690475 10.048 0.690475 12.5377H1.69048ZM19.7381 17.8571V32.1429H20.7381V17.8571H19.7381ZM20.4953 32.5716L32.4001 25.4287L31.8856 24.5713L19.9808 31.7141L20.4953 32.5716ZM32.4001 24.5713L20.4953 17.4284L19.9808 18.2859L31.8856 25.4287L32.4001 24.5713Z" fill="white"/>
</svg>
